<svg xmlns="http://www.w3.org/2000/svg" xmlns:xlink="http://www.w3.org/1999/xlink" width="1920" zoomAndPan="magnify" viewBox="0 0 1440 809.999993" height="1080" preserveAspectRatio="xMidYMid meet" version="1.0"><path fill="#aa612e" d="M 595.960938 532.355469 C 599.320312 523.195312 603.644531 511.128906 604.421875 505.386719 C 605.648438 495.710938 607.972656 477.773438 607.972656 477.773438 C 607.972656 477.773438 601.449219 471.066406 599.707031 463.515625 C 597.964844 455.96875 593.894531 415.324219 593.570312 412.097656 C 593.25 408.871094 595.316406 408.417969 595.316406 408.417969 C 595.316406 408.417969 597.253906 418.546875 604.9375 421.195312 C 612.554688 423.839844 638.253906 431.582031 655.882812 429.839844 C 673.511719 428.097656 681.582031 418.289062 681.582031 418.289062 C 681.582031 418.289062 683.328125 425.582031 682.617188 428.226562 C 681.90625 430.871094 665.183594 475 662.339844 477.453125 C 659.5 479.902344 653.171875 483.453125 653.171875 483.453125 C 653.171875 483.453125 651.945312 492.097656 653.171875 505.453125 C 654.398438 518.804688 660.597656 548.160156 660.597656 548.160156 C 660.597656 548.160156 656.207031 562.742188 631.539062 562.742188 C 616.496094 562.742188 605.195312 556.355469 598.542969 551 C 598.414062 545.066406 596.734375 536.289062 595.960938 532.355469 Z M 760.230469 472.03125 C 764.363281 482.742188 775.46875 495.257812 775.46875 495.257812 L 777.730469 507.773438 L 807.175781 462.546875 C 807.175781 462.546875 807.625 457.386719 807.175781 450.226562 C 806.722656 443 814.019531 429.644531 814.019531 429.644531 C 814.019531 429.644531 807.238281 441.96875 800.847656 444.871094 C 794.453125 447.773438 778.828125 451.257812 766.042969 448.160156 C 753.257812 445.066406 750.222656 433.582031 749.253906 432.742188 C 749.253906 432.742188 756.097656 461.324219 760.230469 472.03125 Z M 758.746094 467.710938 C 759.261719 469.324219 760.746094 469.902344 761.199219 471.128906 C 761.457031 471.773438 760.8125 473.386719 761.070312 474.03125 C 765.65625 484.226562 775.46875 495.257812 775.46875 495.257812 L 777.730469 507.773438 L 807.175781 462.546875 C 807.175781 462.546875 807.304688 460.871094 807.367188 458.03125 C 806.269531 457.582031 806.851562 454.871094 807.109375 452.933594 C 807.304688 451.386719 807.046875 450.546875 807.175781 450.226562 C 806.722656 443 814.019531 429.644531 814.019531 429.644531 C 814.019531 429.644531 807.238281 441.96875 800.847656 444.871094 C 794.453125 447.773438 778.828125 451.257812 766.042969 448.160156 C 753.257812 445.066406 750.222656 433.582031 749.253906 432.742188 C 749.253906 432.742188 754.679688 455.195312 758.746094 467.710938 Z M 807.496094 520.417969 C 805.109375 524.417969 798.394531 533.324219 796.003906 534.097656 C 793.613281 534.871094 791.355469 540.613281 791.355469 542.871094 C 791.355469 545.128906 792.128906 551 792.128906 551.453125 C 792.128906 551.902344 795.9375 552.742188 801.816406 550.675781 C 807.691406 548.613281 817.765625 535.386719 817.765625 535.386719 L 810.917969 509.582031 C 810.984375 509.644531 809.886719 516.484375 807.496094 520.417969 Z M 834.617188 475 L 861.996094 478.097656 L 870.324219 550.546875 L 876.910156 549.582031 L 865.675781 461.96875 L 867.613281 397.257812 L 851.921875 403.324219 C 851.921875 403.324219 852.570312 417 853.925781 420.484375 C 855.28125 423.96875 857.410156 431.773438 857.796875 436.226562 C 858.1875 440.675781 853.925781 459.710938 853.925781 459.710938 L 850.503906 468.742188 L 837.523438 467.515625 Z M 828.03125 552.03125 L 830.292969 481.195312 L 821.832031 496.546875 C 821.832031 496.546875 819.121094 550.355469 818.734375 550.484375 Z M 700.308594 475.324219 C 700.308594 475.324219 692.820312 491.128906 692.367188 493.453125 C 691.980469 495.773438 692.367188 507.773438 692.367188 507.773438 L 692.171875 519.902344 L 687.78125 521 L 687.78125 555.324219 L 700.246094 555.324219 L 700.246094 475.324219 Z M 700.308594 475.324219 " fill-opacity="1" fill-rule="nonzero"/><path fill="#d08e42" d="M 597.125 408.355469 C 597.125 402.613281 600.804688 403.066406 600.804688 403.066406 C 600.804688 403.066406 602.417969 403.710938 604.808594 405.128906 C 607.195312 406.613281 613.007812 402.933594 615.269531 405.128906 C 617.527344 407.324219 623.339844 406.289062 627.796875 406.742188 C 632.25 407.195312 633.605469 405.644531 635.609375 403.453125 C 637.609375 401.324219 637.351562 397.128906 637.351562 397.128906 L 649.296875 398.871094 L 647.167969 405.066406 C 647.167969 405.066406 651.363281 409.066406 658.273438 409.582031 C 665.117188 410.097656 665.503906 408.289062 665.503906 408.289062 L 667.636719 403.839844 C 679.96875 408.03125 679.066406 415.773438 679.066406 415.773438 C 679.066406 415.773438 677.320312 421.386719 668.667969 424.226562 C 660.015625 427.066406 644.90625 428.804688 620.238281 423.195312 C 595.574219 417.582031 597.125 408.355469 597.125 408.355469 Z M 810.984375 265.453125 C 819.25 267 824.738281 271.902344 826.160156 273.902344 C 827.515625 275.902344 829.195312 279.582031 829.195312 279.582031 C 829.195312 279.582031 830.164062 268.097656 831.128906 266.289062 C 832.097656 264.484375 832.488281 260.484375 832.488281 260.484375 C 832.488281 260.484375 829.902344 256.933594 824.414062 253.96875 C 818.925781 251 810.726562 249 810.726562 249 C 810.726562 249 802.394531 252.289062 800.976562 255.128906 C 799.621094 257.96875 797.941406 266.742188 797.941406 266.742188 C 797.941406 266.742188 802.71875 263.902344 810.984375 265.453125 Z M 872.78125 379.386719 C 871.488281 371.839844 861.609375 337.582031 858.894531 330.675781 C 856.183594 323.773438 845.464844 313.902344 843.269531 312.742188 C 841.074219 311.582031 831.710938 307.515625 831.710938 307.515625 C 831.710938 307.515625 824.027344 314.742188 818.28125 319.386719 C 812.46875 324.03125 807.109375 325 807.109375 325 C 806.078125 323.128906 800.332031 316.742188 798.714844 315.195312 C 797.101562 313.644531 795.421875 309.453125 795.035156 307.773438 C 795.035156 307.773438 788.382812 308.097656 780.957031 310.804688 C 773.53125 313.453125 767.851562 329.902344 766.105469 333.257812 C 764.363281 336.613281 752.804688 360.355469 750.222656 367.066406 C 747.703125 373.773438 750.675781 381.902344 751.0625 382.546875 C 751.191406 382.871094 757.195312 378.160156 761.585938 378.742188 C 765.976562 379.324219 769.722656 380.160156 770.046875 379.773438 C 770.367188 379.453125 773.402344 372.933594 773.144531 370.742188 C 772.886719 368.546875 772.304688 357.453125 773.984375 354.675781 C 773.984375 354.675781 775.859375 369.386719 776.179688 375.066406 C 776.503906 380.742188 777.601562 385.128906 777.601562 385.128906 C 778.890625 385.710938 785.21875 387.644531 785.21875 387.644531 L 789.742188 390.355469 C 788.773438 388.546875 792.515625 387.582031 792.515625 387.582031 C 791.160156 385 793.292969 383.257812 794.96875 382.933594 C 796.648438 382.613281 805.109375 386.03125 805.109375 386.03125 C 805.109375 386.03125 805.949219 382.613281 808.144531 382.675781 C 810.273438 382.742188 815.441406 388.546875 815.441406 388.546875 C 815.441406 388.546875 820.21875 389 821.445312 388.675781 C 823.125 388.226562 829.515625 384.355469 833.457031 384.03125 C 837.394531 383.710938 844.175781 378.097656 844.175781 378.097656 C 844.175781 378.097656 843.011719 369.128906 841.398438 365.386719 C 839.785156 361.644531 838.363281 352.226562 837.328125 344.417969 C 836.296875 336.613281 839.074219 330.804688 839.074219 330.804688 C 837.070312 338.03125 841.527344 361.324219 843.269531 364.613281 C 845.011719 367.902344 845.722656 377.773438 845.722656 377.773438 L 851.082031 374.613281 C 849.339844 378.355469 845.273438 381.710938 839.523438 383.453125 C 833.714844 385.195312 827.0625 388.484375 827.0625 388.484375 C 827.0625 388.484375 828.675781 392.226562 830.097656 394.289062 C 831.519531 396.355469 831.519531 405 831.519531 405 C 831.519531 405 832.226562 405.128906 841.527344 403.710938 C 850.824219 402.289062 866.710938 396.355469 871.746094 393.324219 C 876.847656 390.226562 874.070312 386.871094 872.78125 379.386719 Z M 795.617188 402.226562 C 778.375 399.515625 762.234375 405.515625 756.9375 414.097656 C 753.96875 418.933594 751.125 426.355469 751.644531 432.160156 C 751.644531 432.160156 754.289062 442.417969 767.398438 445.773438 C 780.507812 449.128906 798.132812 444.417969 805.238281 437.839844 C 812.339844 431.257812 812.984375 421.257812 812.984375 421.257812 C 812.984375 421.257812 812.921875 404.933594 795.617188 402.226562 Z M 831.839844 407 C 829 406.484375 828.03125 406.355469 828.03125 406.355469 C 828.03125 406.355469 822.347656 407.515625 819.378906 407.710938 C 816.410156 407.902344 809.757812 405.96875 810.082031 406.355469 C 812.984375 410.226562 815.441406 418.613281 815.441406 418.613281 C 815.441406 418.613281 829.324219 417.644531 834.8125 417.96875 C 840.300781 418.289062 850.566406 420.613281 850.566406 420.613281 L 849.40625 406.355469 C 849.46875 406.355469 834.683594 407.515625 831.839844 407 Z M 807.304688 453.453125 C 807.367188 455.195312 807.367188 456.742188 807.367188 458.03125 C 805.882812 459.710938 804.332031 461.324219 802.847656 463 C 803.625 463.839844 804.460938 464.675781 805.238281 465.515625 L 803.816406 467.710938 C 802.976562 466.804688 802.074219 465.839844 801.234375 464.933594 C 799.296875 467.324219 797.488281 469.902344 795.617188 472.355469 C 795.488281 472.484375 795.359375 472.675781 795.292969 472.804688 C 796.390625 473.839844 797.488281 474.804688 798.523438 475.839844 L 796.972656 478.160156 C 795.875 477.066406 794.777344 475.902344 793.742188 474.804688 C 791.613281 477.644531 789.351562 480.417969 787.15625 483.195312 C 787.285156 483.324219 787.414062 483.515625 787.542969 483.710938 C 788.644531 485 789.804688 486.226562 790.96875 487.515625 L 790.320312 488.546875 C 789.546875 487.839844 788.835938 487.128906 788.125 486.355469 C 787.480469 485.710938 786.898438 485 786.253906 484.355469 C 785.867188 484.871094 785.414062 485.386719 785.027344 485.902344 C 783.476562 487.839844 781.925781 489.710938 780.378906 491.582031 C 781.085938 492.355469 781.796875 493.128906 782.507812 493.902344 C 784.1875 493.644531 785.929688 493.257812 787.609375 492.742188 L 785.542969 495.902344 L 775.726562 496.675781 L 775.46875 495.324219 C 775.46875 495.324219 775.082031 494.871094 774.4375 494.160156 C 775.019531 493.515625 775.597656 492.804688 776.179688 492.160156 C 774.4375 490.03125 772.628906 487.839844 770.886719 485.710938 C 770.367188 486.355469 769.851562 487 769.269531 487.644531 C 768.691406 486.804688 768.042969 485.96875 767.464844 485.128906 C 767.851562 484.417969 768.238281 483.710938 768.625 483 C 766.171875 480.03125 763.71875 477 761.265625 474.03125 C 761.199219 474.097656 761.136719 474.160156 761.070312 474.226562 C 760.941406 473.902344 760.8125 473.582031 760.683594 473.257812 C 760.554688 472.871094 760.359375 472.546875 760.230469 472.226562 C 760.101562 471.902344 759.972656 471.644531 759.910156 471.324219 C 759.84375 471.066406 759.714844 470.871094 759.648438 470.613281 C 759.648438 470.546875 759.585938 470.417969 759.585938 470.355469 C 759.328125 469.582031 759.070312 468.804688 758.8125 467.96875 C 759.003906 468.160156 759.199219 468.355469 759.390625 468.546875 C 759.648438 468.871094 759.972656 469.195312 760.230469 469.515625 C 761.652344 467.644531 762.941406 465.773438 764.300781 463.902344 C 765.074219 462.871094 765.847656 461.902344 766.625 460.871094 C 765.074219 458.804688 763.460938 456.742188 761.910156 454.675781 C 761.78125 454.484375 761.328125 453.902344 760.8125 453.066406 C 759.261719 455 757.777344 457 755.96875 458.675781 C 755.777344 457.96875 755.582031 457.324219 755.386719 456.613281 C 756.9375 455 758.292969 453.195312 759.714844 451.386719 C 756.9375 447.257812 752.484375 440.289062 751.253906 436.742188 C 752.742188 439.453125 755.324219 443.128906 759.585938 445.710938 C 760.296875 446.742188 760.941406 447.773438 761.652344 448.804688 C 762.039062 448.289062 762.425781 447.839844 762.8125 447.324219 C 763.460938 447.582031 764.171875 447.839844 764.945312 448.03125 C 764.234375 448.871094 763.523438 449.710938 762.8125 450.546875 C 764.6875 453.386719 766.558594 456.160156 768.300781 458.804688 C 769.722656 457.128906 771.144531 455.515625 772.5625 453.902344 C 773.015625 453.386719 773.46875 452.933594 773.855469 452.417969 C 772.953125 451.386719 772.113281 450.355469 771.207031 449.257812 C 772.046875 449.324219 772.824219 449.386719 773.660156 449.453125 C 774.113281 449.96875 774.566406 450.484375 774.953125 451.066406 C 775.40625 450.546875 775.855469 450.03125 776.308594 449.515625 C 777.921875 449.515625 779.539062 449.453125 781.152344 449.386719 C 780.054688 450.742188 778.890625 452.160156 777.792969 453.515625 C 777.601562 453.710938 777.472656 453.902344 777.277344 454.160156 C 779.28125 456.871094 781.476562 459.386719 783.734375 461.839844 C 785.609375 458.742188 787.480469 455.644531 789.417969 452.613281 C 788.253906 451.386719 787.09375 450.160156 785.929688 448.933594 C 786.769531 448.804688 787.675781 448.675781 788.511719 448.546875 C 789.222656 449.324219 789.933594 450.03125 790.644531 450.804688 C 791.355469 449.710938 792.128906 448.675781 792.902344 447.644531 C 794.648438 447.195312 796.261719 446.742188 797.617188 446.289062 C 796.648438 447.710938 795.679688 449.066406 794.710938 450.484375 C 794.066406 451.386719 793.484375 452.226562 792.839844 453.128906 C 795.488281 455.902344 798.132812 458.613281 800.78125 461.386719 C 801.296875 460.675781 801.878906 460.03125 802.394531 459.324219 C 803.882812 457.386719 805.367188 455.453125 806.789062 453.453125 C 804.269531 450.871094 801.6875 448.289062 798.972656 445.839844 C 799.554688 445.644531 800.070312 445.386719 800.589844 445.195312 C 800.652344 445.128906 800.71875 445.128906 800.847656 445.0625 C 802.914062 446.933594 804.914062 448.804688 806.980469 450.675781 C 807.046875 451.515625 807.046875 452.289062 807.109375 453 C 807.109375 453.195312 807.109375 453.386719 807.109375 453.515625 C 807.304688 453.324219 807.304688 453.386719 807.304688 453.453125 Z M 770.757812 462.289062 C 772.175781 464.417969 773.53125 466.289062 774.628906 467.710938 C 775.535156 468.871094 776.503906 470.097656 777.40625 471.257812 C 779.472656 468.613281 781.28125 465.839844 783.023438 462.933594 C 780.765625 460.355469 778.570312 457.773438 776.375 455.195312 C 774.5 457.515625 772.628906 459.902344 770.757812 462.289062 Z M 775.597656 473.453125 C 775.792969 473.195312 776.050781 472.933594 776.246094 472.675781 C 774.242188 470.289062 772.304688 467.902344 770.367188 465.453125 C 770.046875 465 769.660156 464.546875 769.335938 464.097656 C 769.078125 464.417969 768.820312 464.742188 768.5625 465.066406 C 766.753906 467.453125 764.878906 469.902344 762.878906 472.160156 C 765.269531 474.804688 767.722656 477.453125 770.109375 480.160156 C 770.109375 480.097656 770.175781 480.03125 770.175781 480.03125 C 771.726562 477.644531 773.726562 475.582031 775.597656 473.453125 Z M 777.988281 494.226562 C 777.988281 494.226562 777.921875 494.226562 777.988281 494.226562 Z M 784.058594 481.773438 C 782.121094 479.582031 780.183594 477.324219 778.246094 475.066406 C 776.503906 477.773438 774.695312 480.484375 772.757812 483.128906 C 774.628906 485.195312 776.503906 487.195312 778.3125 489.257812 C 779.152344 488.097656 780.054688 486.933594 780.894531 485.773438 C 781.925781 484.417969 782.960938 483.066406 784.058594 481.773438 Z M 791.613281 472.484375 C 789.289062 469.96875 787.027344 467.453125 784.769531 464.933594 C 783.929688 466.226562 783.089844 467.453125 782.25 468.742188 C 781.21875 470.355469 780.183594 471.96875 779.214844 473.515625 C 781.085938 475.902344 783.023438 478.226562 784.960938 480.546875 C 787.15625 477.839844 789.351562 475.195312 791.613281 472.484375 Z M 799.492188 463 C 796.90625 460.226562 794.324219 457.453125 791.742188 454.742188 C 789.675781 457.710938 787.675781 460.613281 785.671875 463.582031 C 788.0625 466.03125 790.578125 468.417969 793.097656 470.742188 C 795.230469 468.160156 797.359375 465.582031 799.492188 463 Z M 678.675781 432.613281 C 679.644531 432.03125 680.613281 431.515625 681.519531 431 C 680.613281 433.582031 679.066406 437.582031 677.320312 442.226562 C 677.128906 442.355469 676.933594 442.484375 676.742188 442.613281 C 674.542969 444.097656 672.21875 445.453125 669.960938 446.804688 C 671.058594 448.804688 672.089844 450.804688 673.1875 452.804688 C 671.445312 457.257812 669.636719 461.644531 668.023438 465.515625 C 665.503906 467.453125 662.921875 469.324219 660.339844 471.195312 C 661.113281 473.066406 661.890625 475 662.726562 476.804688 C 662.535156 477.128906 662.339844 477.324219 662.210938 477.453125 C 661.695312 477.902344 661.113281 478.355469 660.46875 478.804688 C 659.5625 476.871094 658.660156 474.933594 657.757812 473 C 654.074219 475.644531 650.332031 478.226562 646.585938 480.804688 C 647.101562 481.839844 647.617188 482.871094 648.136719 483.96875 C 651.039062 483.644531 653.042969 483.453125 653.042969 483.453125 L 652.65625 487.582031 C 652.65625 487.582031 621.855469 494.355469 606.746094 483.582031 L 607.777344 477.839844 C 607.777344 477.839844 601.257812 471.128906 599.511719 463.582031 C 599.191406 462.097656 598.738281 459.324219 598.222656 455.773438 C 598.929688 456.871094 599.578125 457.96875 600.289062 459.066406 C 603.515625 456.675781 606.808594 454.484375 610.167969 452.226562 C 609.003906 449.386719 607.84375 446.546875 606.746094 443.710938 C 605.839844 441.453125 605 439.195312 604.097656 436.871094 C 601.578125 439 599.191406 441.324219 596.734375 443.453125 C 596.542969 441.96875 596.414062 440.484375 596.21875 438.933594 C 598.414062 437.128906 600.609375 435.386719 602.871094 433.582031 C 599.835938 425.453125 596.929688 417.195312 594.21875 408.933594 C 594.667969 408.484375 595.121094 408.355469 595.121094 408.355469 C 595.121094 408.355469 596.21875 414.03125 599.964844 417.96875 C 601.773438 422.484375 603.582031 426.933594 605.453125 431.453125 C 608.488281 429 611.585938 426.546875 614.621094 424.160156 C 616.6875 424.742188 618.882812 425.324219 621.273438 425.902344 C 620.691406 426.226562 620.109375 426.546875 619.53125 426.933594 C 621.789062 431.257812 624.050781 435.644531 626.246094 440.03125 C 630.25 436.675781 634.1875 433.257812 638.253906 429.96875 C 638.125 429.644531 637.996094 429.386719 637.867188 429.066406 C 641.355469 429.515625 644.84375 429.839844 648.199219 429.96875 C 646.648438 431.195312 645.101562 432.417969 643.550781 433.644531 C 646.199219 438.804688 648.652344 444.03125 651.105469 449.324219 C 655.042969 446.804688 659.046875 444.355469 663.050781 441.96875 C 661.179688 437.839844 659.242188 433.710938 657.367188 429.582031 C 658.402344 429.453125 659.371094 429.257812 660.339844 429.128906 C 660.660156 429.582031 660.921875 430.097656 661.242188 430.613281 C 662.921875 433.773438 664.664062 436.871094 666.34375 440.03125 C 669.316406 438.226562 672.285156 436.484375 675.253906 434.742188 C 673.578125 431.839844 671.832031 429 670.089844 426.097656 C 671.640625 425.386719 672.996094 424.675781 674.222656 423.96875 C 674.675781 424.546875 675.0625 425.195312 675.382812 425.839844 C 676.546875 428.03125 677.644531 430.289062 678.675781 432.613281 Z M 628.957031 445.195312 C 630.25 447.839844 631.605469 450.417969 632.894531 453.066406 C 633.929688 455.128906 634.960938 457.128906 635.929688 459.195312 C 639.804688 456.546875 643.746094 453.96875 647.683594 451.453125 C 647.746094 451.386719 647.8125 451.386719 647.875 451.324219 C 645.550781 446.160156 643.226562 440.933594 640.902344 435.773438 C 639.675781 436.742188 638.449219 437.710938 637.222656 438.675781 C 634.511719 440.871094 631.796875 443.066406 628.957031 445.195312 Z M 625.148438 448.03125 C 623.339844 449.324219 621.53125 450.613281 619.660156 451.839844 C 618.109375 452.871094 616.558594 453.839844 614.945312 454.804688 C 617.011719 459.902344 619.078125 465 620.886719 470.226562 C 624.308594 467.773438 627.664062 465.128906 631.089844 462.613281 C 629.085938 457.773438 627.085938 452.871094 625.148438 448.03125 Z M 613.136719 450.160156 C 614.234375 449.453125 615.269531 448.675781 616.300781 447.902344 C 618.625 446.226562 620.886719 444.484375 623.082031 442.675781 C 622.371094 440.804688 621.660156 438.933594 620.949219 437.128906 C 619.789062 434.097656 618.625 431.128906 617.335938 428.160156 C 614.171875 429.902344 611.007812 431.644531 608.035156 433.773438 C 607.648438 434.097656 607.195312 434.355469 606.808594 434.675781 C 608.941406 439.839844 611.007812 445 613.136719 450.160156 Z M 610.296875 477 C 611.910156 476.097656 613.460938 475.195312 615.011719 474.226562 C 616.109375 473.515625 617.140625 472.804688 618.238281 472.097656 C 616.238281 466.871094 614.171875 461.710938 612.105469 456.546875 C 608.875 458.484375 605.582031 460.417969 602.417969 462.417969 C 605.066406 467.195312 607.648438 472.160156 610.296875 477 Z M 612.492188 479.773438 C 615.527344 481.128906 619.464844 482.804688 622.4375 483.96875 C 621.53125 481.195312 620.5625 478.417969 619.53125 475.644531 C 617.207031 477.128906 614.878906 478.484375 612.492188 479.773438 Z M 632.445312 485.257812 C 634.703125 483.773438 637.09375 482.417969 639.417969 481 C 637.222656 476.355469 635.089844 471.710938 633.023438 467 C 629.410156 469.257812 625.859375 471.644531 622.242188 473.96875 C 623.46875 477.773438 624.632812 481.644531 626.246094 485.324219 C 627.148438 485.515625 629.472656 485.453125 632.445312 485.257812 Z M 641.160156 484.546875 C 641.160156 484.546875 641.160156 484.484375 641.097656 484.484375 C 641.03125 484.484375 641.03125 484.546875 640.96875 484.546875 C 641.03125 484.613281 641.097656 484.546875 641.160156 484.546875 Z M 656.011719 469 C 654.203125 465.066406 652.398438 461.066406 650.589844 457.128906 C 646.457031 459.257812 642.324219 461.453125 638.320312 463.839844 C 640.582031 468.355469 642.839844 472.871094 645.101562 477.386719 C 648.714844 474.871094 652.203125 472.03125 655.625 469.324219 C 655.691406 469.195312 655.882812 469.066406 656.011719 469 Z M 666.28125 448.804688 C 662.210938 451.066406 658.078125 453.195312 653.882812 455.324219 C 655.5625 459.128906 657.175781 462.933594 658.726562 466.804688 C 662.597656 463.839844 666.472656 460.933594 670.414062 458.03125 C 669.054688 455 667.636719 451.902344 666.28125 448.804688 Z M 666.28125 448.804688 " fill-opacity="1" fill-rule="nonzero"/><path fill="#b94622" d="M 671.058594 266.675781 C 670.734375 265.710938 668.21875 258.933594 658.726562 257.128906 C 649.167969 255.386719 643.164062 257.386719 639.742188 258.871094 C 636.320312 260.355469 628.3125 270.097656 628.3125 270.097656 C 628.3125 270.097656 625.988281 269.066406 624.890625 267.066406 C 623.726562 265.066406 623.984375 257.324219 623.984375 257.324219 C 623.984375 257.324219 628.503906 249.324219 638.191406 244.933594 C 642.515625 243 666.34375 243.453125 666.34375 243.453125 C 666.34375 243.453125 671.769531 250.355469 672.867188 254.933594 C 673.964844 259.96875 671.058594 266.675781 671.058594 266.675781 Z M 680.226562 326.613281 C 680.679688 334.675781 679.644531 351.515625 679.644531 351.515625 C 679.644531 351.515625 680.742188 354.871094 680.742188 357.773438 C 680.742188 360.675781 679.515625 365.710938 679.515625 365.710938 C 679.515625 365.710938 682.101562 364.933594 685.003906 364.933594 C 687.910156 364.933594 689.332031 366.933594 689.332031 366.933594 C 689.332031 366.933594 698.566406 367.839844 700.308594 368.03125 C 702.050781 368.160156 709.414062 372.289062 713.222656 376.097656 C 717.03125 379.902344 720.390625 389.839844 720.390625 391.066406 C 720.390625 392.289062 722.519531 393.582031 722.519531 393.582031 C 722.519531 393.582031 722.84375 388.160156 723.75 384.804688 C 724.652344 381.453125 724.199219 375.773438 724.199219 375.773438 C 724.199219 375.773438 726.203125 369.839844 726.007812 366.289062 C 725.816406 362.742188 721.292969 353.195312 719.746094 350.160156 C 718.195312 347.128906 715.484375 336.871094 713.480469 331.839844 C 711.480469 326.804688 699.726562 314.289062 693.917969 308.675781 C 688.105469 303.066406 674.09375 299.902344 674.542969 300.160156 C 677.320312 301.710938 679.773438 318.484375 680.226562 326.613281 Z M 597.898438 313.773438 C 592.863281 316.03125 592.863281 322.933594 590.601562 324.613281 C 588.34375 326.289062 577.753906 337.582031 575.167969 343.515625 C 572.585938 349.453125 570.90625 359.066406 570.261719 361.066406 C 569.679688 363.066406 567.484375 366.417969 565.804688 370.355469 C 564.128906 374.289062 565.03125 392.546875 565.03125 392.546875 C 565.03125 392.546875 563.351562 399.582031 565.03125 393.515625 C 566.710938 387.515625 580.464844 381.710938 586.40625 380.613281 C 592.34375 379.515625 595.703125 380.484375 595.703125 380.484375 C 595.703125 380.484375 597.253906 379.257812 597.058594 377.582031 C 596.929688 375.902344 595.507812 372.546875 595.703125 371.324219 C 595.832031 370.097656 596.800781 367.066406 596.800781 367.066406 L 599.253906 368.160156 C 599.253906 368.160156 600.609375 362.484375 600.609375 360.546875 C 600.609375 358.613281 601.835938 350.226562 601.835938 350.226562 C 602.933594 358.03125 600.609375 370.03125 600.609375 372.742188 C 600.609375 375.453125 600.609375 383.710938 600.609375 383.710938 L 609.003906 387.515625 C 609.003906 387.515625 606.097656 366.613281 605.839844 361.128906 C 605.519531 355.644531 608.359375 339.066406 609.003906 330.613281 C 610.101562 316.742188 616.816406 305.453125 616.816406 305.453125 C 616.816406 305.453125 602.933594 311.453125 597.898438 313.773438 Z M 697.660156 393.515625 C 697.339844 393.644531 691.785156 391.839844 686.941406 389.453125 C 682.035156 387.128906 680.679688 384.742188 679.644531 384.289062 C 678.546875 383.773438 674.09375 382.417969 674.09375 382.417969 L 668.539062 401.710938 C 668.539062 401.710938 673.707031 404.289062 674.609375 405.066406 C 674.609375 405.066406 683.714844 403.066406 689.332031 405.066406 C 694.949219 407.066406 704.828125 420.03125 704.828125 420.03125 C 704.828125 420.03125 707.347656 412.03125 707.152344 410.546875 C 706.960938 409.066406 703.214844 406.613281 701.664062 402.933594 C 700.113281 399.257812 697.660156 393.515625 697.660156 393.515625 Z M 631.734375 354.804688 C 631.863281 359.128906 635.867188 394.871094 635.867188 394.871094 L 650.976562 397.128906 C 650.976562 397.128906 656.335938 367.515625 656.851562 362.160156 C 657.367188 356.742188 660.53125 327.066406 660.792969 322.355469 C 661.050781 317.644531 658.789062 313 658.789062 313 C 658.789062 313 651.039062 313.902344 649.554688 314.289062 C 648.136719 314.675781 646.261719 330.871094 646.261719 330.871094 C 646.261719 330.871094 641.9375 316.933594 641.289062 316.160156 C 640.644531 315.386719 633.15625 312.484375 633.15625 312.484375 C 633.15625 312.484375 631.605469 350.484375 631.734375 354.804688 Z M 631.734375 354.804688 " fill-opacity="1" fill-rule="nonzero"/><path fill="#b94622" d="M 671.058594 266.675781 C 670.734375 265.710938 668.21875 258.933594 658.726562 257.128906 C 649.167969 255.386719 643.164062 257.386719 639.742188 258.871094 C 636.320312 260.355469 628.3125 270.097656 628.3125 270.097656 C 628.3125 270.097656 625.988281 269.066406 624.890625 267.066406 C 623.726562 265.066406 623.984375 257.324219 623.984375 257.324219 C 623.984375 257.324219 628.503906 249.324219 638.191406 244.933594 C 642.515625 243 666.34375 243.453125 666.34375 243.453125 C 666.34375 243.453125 671.769531 250.355469 672.867188 254.933594 C 673.964844 259.96875 671.058594 266.675781 671.058594 266.675781 Z M 680.226562 326.613281 C 680.679688 334.675781 679.644531 351.515625 679.644531 351.515625 C 679.644531 351.515625 680.742188 354.871094 680.742188 357.773438 C 680.742188 360.675781 679.515625 365.710938 679.515625 365.710938 C 679.515625 365.710938 682.101562 364.933594 685.003906 364.933594 C 687.910156 364.933594 689.332031 366.933594 689.332031 366.933594 C 689.332031 366.933594 698.566406 367.839844 700.308594 368.03125 C 702.050781 368.160156 709.414062 372.289062 713.222656 376.097656 C 717.03125 379.902344 720.390625 389.839844 720.390625 391.066406 C 720.390625 392.289062 722.519531 393.582031 722.519531 393.582031 C 722.519531 393.582031 722.84375 388.160156 723.75 384.804688 C 724.652344 381.453125 724.199219 375.773438 724.199219 375.773438 C 724.199219 375.773438 726.203125 369.839844 726.007812 366.289062 C 725.816406 362.742188 721.292969 353.195312 719.746094 350.160156 C 718.195312 347.128906 715.484375 336.871094 713.480469 331.839844 C 711.480469 326.804688 699.726562 314.289062 693.917969 308.675781 C 688.105469 303.066406 674.09375 299.902344 674.542969 300.160156 C 677.320312 301.710938 679.773438 318.484375 680.226562 326.613281 Z M 597.898438 313.773438 C 592.863281 316.03125 592.863281 322.933594 590.601562 324.613281 C 588.34375 326.289062 577.753906 337.582031 575.167969 343.515625 C 572.585938 349.453125 570.90625 359.066406 570.261719 361.066406 C 569.679688 363.066406 567.484375 366.417969 565.804688 370.355469 C 564.128906 374.289062 565.03125 392.546875 565.03125 392.546875 C 565.03125 392.546875 563.351562 399.582031 565.03125 393.515625 C 566.710938 387.515625 580.464844 381.710938 586.40625 380.613281 C 592.34375 379.515625 595.703125 380.484375 595.703125 380.484375 C 595.703125 380.484375 597.253906 379.257812 597.058594 377.582031 C 596.929688 375.902344 595.507812 372.546875 595.703125 371.324219 C 595.832031 370.097656 596.800781 367.066406 596.800781 367.066406 L 599.253906 368.160156 C 599.253906 368.160156 600.609375 362.484375 600.609375 360.546875 C 600.609375 358.613281 601.835938 350.226562 601.835938 350.226562 C 602.933594 358.03125 600.609375 370.03125 600.609375 372.742188 C 600.609375 375.453125 600.609375 383.710938 600.609375 383.710938 L 609.003906 387.515625 C 609.003906 387.515625 606.097656 366.613281 605.839844 361.128906 C 605.519531 355.644531 608.359375 339.066406 609.003906 330.613281 C 610.101562 316.742188 616.816406 305.453125 616.816406 305.453125 C 616.816406 305.453125 602.933594 311.453125 597.898438 313.773438 Z M 697.660156 393.515625 C 697.339844 393.644531 691.785156 391.839844 686.941406 389.453125 C 682.035156 387.128906 680.679688 384.742188 679.644531 384.289062 C 678.546875 383.773438 674.09375 382.417969 674.09375 382.417969 L 668.539062 401.710938 C 668.539062 401.710938 673.707031 404.289062 674.609375 405.066406 C 674.609375 405.066406 683.714844 403.066406 689.332031 405.066406 C 694.949219 407.066406 704.828125 420.03125 704.828125 420.03125 C 704.828125 420.03125 707.347656 412.03125 707.152344 410.546875 C 706.960938 409.066406 703.214844 406.613281 701.664062 402.933594 C 700.113281 399.257812 697.660156 393.515625 697.660156 393.515625 Z M 631.734375 354.804688 C 631.863281 359.128906 635.867188 394.871094 635.867188 394.871094 L 650.976562 397.128906 C 650.976562 397.128906 656.335938 367.515625 656.851562 362.160156 C 657.367188 356.742188 660.53125 327.066406 660.792969 322.355469 C 661.050781 317.644531 658.789062 313 658.789062 313 C 658.789062 313 651.039062 313.902344 649.554688 314.289062 C 648.136719 314.675781 646.261719 330.871094 646.261719 330.871094 C 646.261719 330.871094 641.9375 316.933594 641.289062 316.160156 C 640.644531 315.386719 633.15625 312.484375 633.15625 312.484375 C 633.15625 312.484375 631.605469 350.484375 631.734375 354.804688 Z M 631.734375 354.804688 " fill-opacity="1" fill-rule="nonzero"/><path fill="#1f2c33" d="M 670.023438 296.546875 C 671.121094 298.355469 671.574219 315.453125 671.574219 315.453125 C 671.574219 315.453125 672.285156 312.160156 672.800781 309.453125 C 673.316406 306.742188 671.574219 299.128906 671.574219 299.128906 C 671.574219 299.128906 673.511719 301.195312 674.996094 304.355469 C 676.480469 307.515625 679.128906 327.839844 677.902344 348.933594 C 676.675781 370.03125 664.277344 406.742188 664.277344 406.742188 C 658.789062 411.453125 650.976562 404.355469 650.976562 404.355469 C 650.976562 404.355469 654.65625 389.96875 657.433594 376.484375 C 660.210938 362.933594 661.4375 330.097656 661.4375 323.515625 C 661.4375 316.933594 661.824219 311.839844 662.277344 309.257812 C 662.726562 306.675781 662.664062 303.902344 662.855469 300.871094 C 663.117188 297.839844 665.890625 292.355469 666.019531 291.96875 C 666.085938 291.902344 668.863281 294.742188 670.023438 296.546875 Z M 626.828125 296.675781 C 626.828125 296.675781 624.761719 300.933594 623.792969 303.128906 C 622.824219 305.324219 618.882812 320.03125 618.882812 320.03125 C 618.882812 320.03125 619.140625 317.710938 619.851562 312.613281 C 620.5625 307.515625 623.273438 301.195312 623.273438 301.195312 C 623.273438 301.195312 618.753906 306.160156 617.269531 308.355469 C 615.785156 310.546875 611.652344 324.289062 610.425781 330.417969 C 609.199219 336.484375 608.746094 357.195312 609.070312 362.226562 C 609.457031 367.195312 611.265625 391.066406 612.234375 393.195312 C 613.203125 395.257812 617.140625 397.195312 617.140625 397.195312 C 617.140625 397.195312 616.558594 393.773438 615.203125 385.257812 C 613.847656 376.742188 615.589844 364.675781 615.589844 364.675781 C 615.589844 364.675781 616.109375 373.839844 616.429688 381.96875 C 616.816406 390.097656 621.078125 402.097656 621.078125 402.097656 C 625.082031 404.417969 633.734375 402.097656 634.253906 402.097656 C 634.769531 402.097656 632.316406 389.644531 631.667969 384.546875 C 631.023438 379.453125 630.3125 355.453125 629.214844 347.515625 C 628.117188 339.582031 631.28125 321.324219 631.539062 316.804688 C 631.796875 312.289062 631.667969 303.066406 630.828125 300.742188 C 629.992188 298.417969 629.214844 293.128906 629.214844 293.128906 Z M 679 407.839844 C 679 407.839844 684.941406 415.257812 685.070312 423.644531 C 685.199219 432.03125 679 442.160156 676.933594 448.613281 C 674.867188 455.066406 666.859375 475.453125 666.214844 479.128906 C 665.503906 482.804688 661.628906 496.484375 661.4375 499.324219 C 661.242188 502.160156 661.566406 508.871094 661.566406 508.871094 C 661.566406 508.871094 664.859375 513.257812 670.671875 516.160156 C 676.417969 519.066406 685.394531 520.097656 689.136719 517.839844 C 689.136719 517.839844 689.65625 494.933594 690.882812 490.417969 C 692.171875 485.902344 698.371094 477.902344 701.34375 467.710938 C 704.246094 457.453125 708.378906 436.289062 707.992188 433.386719 C 707.605469 430.484375 704.570312 420.871094 698.242188 415.066406 C 691.914062 409.257812 687.652344 406.871094 684.746094 406.160156 C 681.777344 405.453125 679 407.839844 679 407.839844 Z M 660.726562 526.742188 C 660.726562 526.742188 659.953125 534.355469 660.726562 538.03125 C 661.5 541.710938 663.179688 548.160156 663.179688 548.160156 C 663.179688 548.160156 657.820312 556.484375 657.691406 560.160156 C 657.691406 560.160156 658.464844 563.773438 666.28125 565.386719 C 674.09375 567 679.386719 564.484375 681.710938 562.613281 C 684.035156 560.742188 682.679688 553.710938 682.679688 553.710938 C 682.679688 553.710938 680.097656 546.613281 678.03125 544.03125 C 675.964844 541.515625 674.414062 538.742188 674.09375 535.515625 C 673.769531 532.289062 673.511719 529 673.511719 529 C 673.511719 529 670.21875 526.933594 666.796875 527.066406 C 663.503906 527.257812 660.726562 526.742188 660.726562 526.742188 Z M 589.570312 398.933594 C 589.570312 398.933594 576.394531 406.226562 572.972656 410.933594 C 569.550781 415.644531 567.550781 441.195312 568.261719 456.097656 C 568.96875 470.933594 572.003906 496.355469 572.003906 496.355469 L 570.714844 509.515625 C 570.714844 509.515625 582.464844 511.773438 585.886719 512.097656 C 589.308594 512.417969 593.894531 510.097656 593.894531 510.097656 C 593.894531 510.097656 593.636719 493.386719 593.894531 491.839844 C 594.152344 490.289062 598.609375 476.546875 599.191406 472.097656 C 599.769531 467.644531 596.027344 458.933594 595.316406 454.933594 C 594.605469 450.933594 592.472656 431.386719 591.894531 424.355469 C 591.3125 417.324219 591.183594 409.066406 591.894531 408.355469 C 592.605469 407.644531 595.574219 405.257812 595.574219 405.257812 L 597.125 401.257812 Z M 593.960938 522.742188 C 593.960938 522.742188 591.570312 520.484375 585.566406 521.195312 C 579.558594 521.902344 577.558594 526.804688 577.558594 526.804688 C 577.558594 526.804688 574.78125 526.097656 574.78125 527.195312 C 574.78125 528.289062 571.683594 539.128906 571.425781 541.644531 C 571.164062 544.160156 568.90625 552.871094 569.746094 555.902344 C 569.746094 555.902344 573.8125 560.804688 578.851562 560.933594 C 583.886719 561.066406 591.699219 560.226562 592.863281 559.128906 C 594.089844 558.03125 597.253906 549.96875 597.253906 549.96875 C 597.253906 549.96875 595.121094 539.644531 593.960938 535.902344 C 592.734375 532.160156 593.960938 522.742188 593.960938 522.742188 Z M 850.632812 423.257812 C 850.632812 423.257812 832.292969 419.773438 826.546875 420.613281 C 820.800781 421.453125 815.570312 429.644531 813.050781 437.453125 C 810.53125 445.257812 810.082031 462.160156 810.082031 462.160156 C 810.082031 462.160156 783.089844 506.160156 779.796875 510.484375 C 779.796875 510.484375 786.578125 515.644531 788.835938 518.742188 C 791.097656 521.839844 797.488281 530.289062 797.488281 530.289062 C 797.488281 530.289062 813.761719 501.710938 818.085938 496.355469 C 822.414062 491 835.390625 468.804688 837.007812 464.484375 C 838.6875 460.160156 840.300781 451.96875 840.300781 451.96875 C 840.300781 451.96875 839.460938 463.257812 838.425781 465.515625 C 838.425781 465.515625 845.851562 466.160156 848.113281 465.710938 C 850.4375 465.257812 858.636719 436.871094 850.632812 423.257812 Z M 732.660156 437.066406 C 732.273438 444.484375 747.253906 531.710938 749.253906 531.257812 C 751.253906 530.871094 774.242188 519.324219 774.242188 519.324219 C 774.242188 519.324219 770.109375 495.644531 768.949219 494.226562 C 767.785156 492.804688 760.875 480.417969 758.359375 473.453125 C 755.90625 466.484375 748.089844 436.417969 747.445312 432.933594 C 746.800781 429.453125 752.546875 418.546875 751.578125 418.742188 C 736.726562 421.644531 733.046875 429.644531 732.660156 437.066406 Z M 779.796875 515.515625 C 779.796875 515.515625 774.371094 524.226562 771.789062 531.257812 C 769.269531 538.289062 768.367188 549.582031 768.949219 551.453125 C 769.53125 553.324219 781.539062 559.515625 787.546875 556.546875 C 789.480469 555.582031 789.289062 549.386719 788.644531 546.675781 C 787.996094 543.96875 782.894531 536.417969 782.894531 536.417969 C 782.894531 536.417969 786.707031 538.871094 787.996094 541.453125 L 794.066406 528.742188 C 794.066406 528.742188 790.257812 521.128906 788.191406 519.644531 C 786.125 518.226562 779.796875 515.515625 779.796875 515.515625 Z M 751.578125 532.355469 C 751.578125 532.355469 748.351562 538.226562 745.832031 539.644531 C 743.3125 541.066406 738.988281 541.386719 736.144531 545.515625 C 735.046875 547.128906 738.664062 549.324219 741.375 549.515625 C 744.089844 549.644531 759.070312 548.871094 762.105469 548.226562 C 765.136719 547.582031 766.558594 542.804688 766.558594 542.804688 C 766.558594 542.804688 769.722656 525.96875 771.660156 523.839844 Z M 751.578125 532.355469 " fill-opacity="1" fill-rule="nonzero"/><path fill="#884a3b" d="M 807.949219 387.257812 C 807.949219 387.257812 806.59375 385.96875 807.367188 384.613281 C 808.207031 383.257812 812.984375 388.484375 812.984375 388.484375 Z M 639.417969 261.386719 C 632.894531 264.160156 630.25 271.96875 630.25 271.96875 C 630.25 271.96875 628.246094 271.644531 626.957031 272.742188 C 625.730469 273.839844 626.050781 277.839844 626.957031 281.453125 C 627.859375 285 631.476562 286.546875 631.476562 286.546875 C 631.476562 288.417969 632.25 296.613281 633.671875 299.453125 C 635.089844 302.226562 634.574219 310.613281 634.574219 310.613281 C 634.574219 310.613281 641.417969 312.484375 643.746094 314.03125 C 646.070312 315.582031 647.296875 327.839844 647.296875 327.839844 L 648.394531 312.03125 C 649.941406 311.128906 660.339844 311.710938 661.757812 310.804688 C 663.179688 309.902344 662.535156 303.515625 662.535156 303.515625 C 662.535156 303.515625 652.460938 308.160156 648.714844 308.355469 C 644.972656 308.484375 636.253906 298.742188 636.253906 298.742188 C 638.773438 302.03125 646.972656 307.902344 653.496094 306.03125 C 660.015625 304.160156 663.4375 297 664.664062 294.226562 C 665.890625 291.453125 668.734375 281.773438 669.507812 280.097656 C 670.28125 278.417969 672.027344 269.582031 670.929688 267.515625 C 663.632812 253.96875 645.941406 258.613281 639.417969 261.386719 Z M 713.867188 378.742188 C 719.035156 384.097656 719.808594 391.386719 719.808594 391.386719 C 719.808594 391.386719 702.699219 392.933594 695.851562 390.484375 C 689.007812 388.03125 682.875 381.324219 682.875 381.324219 C 682.875 381.324219 683.777344 377.324219 684.683594 376.417969 C 685.585938 375.515625 685.910156 373.515625 685.910156 373.515625 C 685.910156 373.515625 683.90625 375.644531 683.003906 376.417969 C 682.101562 377.195312 681 381.453125 679.453125 381.324219 C 677.902344 381.195312 671.378906 377.066406 666.925781 373.710938 C 662.46875 370.355469 662.339844 365 661.566406 360.871094 C 660.792969 356.742188 661.5 350.03125 662.664062 350.097656 C 663.761719 350.160156 663.761719 354.355469 664.019531 357.710938 C 664.34375 361.066406 665.828125 362.742188 665.828125 362.742188 C 665.828125 362.742188 665.246094 358.613281 665.828125 355.386719 C 666.410156 352.160156 668.347656 348.03125 670.152344 348.804688 C 671.960938 349.582031 671.25 352.289062 671.25 357.515625 C 671.25 362.675781 673.511719 365.902344 673.511719 365.902344 C 673.511719 365.902344 673.1875 359.644531 673.511719 357.644531 C 673.835938 355.644531 677.191406 351.386719 678.804688 353.066406 C 680.421875 354.742188 677.644531 360.871094 678.097656 363.902344 C 678.546875 366.933594 679.453125 369.582031 679.453125 369.582031 C 679.453125 369.582031 684.8125 366.804688 686.492188 366.804688 C 688.167969 366.804688 688.492188 368.933594 688.945312 368.933594 C 689.394531 368.933594 702.828125 370.289062 702.828125 370.289062 C 702.828125 370.289062 708.703125 373.453125 713.867188 378.742188 Z M 595.507812 381.96875 C 595.507812 381.96875 604.679688 387.324219 609.585938 388.355469 C 614.492188 389.386719 624.695312 390.355469 627.730469 391.902344 C 630.765625 393.386719 635.671875 398.417969 636.578125 400.417969 C 637.480469 402.417969 635.671875 403.515625 634.121094 403.066406 C 634.121094 403.066406 632.574219 400.160156 629.085938 397.257812 C 625.597656 394.355469 620.820312 391.902344 620.820312 391.902344 C 620.820312 391.902344 626.503906 396.613281 628.441406 398.613281 C 630.441406 400.613281 633.023438 404.804688 632.378906 405.128906 C 631.796875 405.453125 629.023438 405.195312 627.019531 403.066406 C 625.019531 400.871094 622.304688 394.804688 617.65625 393 C 617.65625 393 620.175781 395.324219 620.5625 396.613281 C 620.949219 397.902344 623.664062 402.03125 623.984375 403.066406 C 624.308594 404.097656 621.402344 404.289062 619.078125 403.066406 C 616.816406 401.839844 614.816406 396.933594 612.945312 395.839844 C 611.136719 394.742188 609.003906 394.613281 609.003906 394.613281 C 609.003906 394.613281 611.007812 397.066406 611.910156 398.289062 C 612.8125 399.515625 613.265625 402.03125 610.8125 403.066406 C 608.359375 404.097656 607.003906 400.160156 605.90625 400.289062 C 604.808594 400.417969 602.871094 402.097656 600.867188 400.871094 C 598.867188 399.644531 594.929688 397.96875 591.246094 396.933594 C 587.566406 395.839844 579.171875 393.453125 575.234375 388.097656 C 575.363281 388.097656 580.722656 380.289062 595.507812 381.96875 Z M 674.933594 520.289062 L 673.835938 527.128906 C 673.835938 527.128906 671.1875 525.066406 667.3125 524.804688 C 663.375 524.484375 661.371094 524.289062 661.371094 524.289062 C 661.371094 524.289062 661.824219 517.644531 660.726562 516.871094 C 659.628906 516.097656 658.789062 514.417969 658.789062 514.417969 L 660.855469 510.742188 C 660.855469 510.742188 666.925781 518.742188 674.933594 520.289062 Z M 593.765625 518.742188 C 585.5 518.675781 578.203125 524.546875 578.203125 524.546875 L 576.265625 525.386719 L 575.558594 512.160156 C 575.558594 512.160156 584.210938 513.582031 586.597656 513.582031 C 588.988281 513.582031 593.183594 512.613281 593.183594 512.613281 Z M 816.410156 268.871094 C 824.542969 272.160156 827.644531 281.066406 827.644531 281.066406 C 827.644531 281.066406 829.515625 281.066406 830.871094 283.902344 C 832.226562 286.742188 828.03125 294.355469 827.257812 296.417969 C 826.480469 298.484375 828.03125 305.195312 828.03125 305.195312 C 827.0625 308.417969 817.957031 315.644531 815.441406 317.582031 C 812.984375 319.453125 808.789062 322.160156 808.789062 322.160156 C 808.789062 320.417969 804.59375 317.773438 804.59375 317.773438 C 804.59375 317.773438 807.625 317 811.050781 315.453125 C 814.472656 313.839844 820.929688 310.613281 820.929688 310.613281 C 818.28125 312.871094 803.816406 316.871094 801.363281 315 C 798.910156 313.128906 795.488281 298.675781 795.101562 295.96875 C 794.710938 293.324219 795.875 286.871094 796.070312 284.933594 C 796.261719 283.066406 795.679688 275.257812 797.425781 270.871094 C 797.359375 270.742188 802.914062 263.324219 816.410156 268.871094 Z M 826.804688 393.582031 C 828.417969 394.546875 827.964844 401.773438 827.964844 401.773438 C 827.964844 401.773438 823.1875 403.96875 820.023438 404.804688 C 816.859375 405.644531 814.082031 402.933594 807.175781 402.484375 C 800.199219 402.03125 799.8125 399.902344 800.070312 399.128906 C 800.332031 398.417969 806.464844 399.128906 807.175781 399.128906 C 807.886719 399.128906 803.882812 397.96875 798.910156 397.257812 C 793.9375 396.546875 793.097656 394.675781 793.871094 393.773438 C 794.648438 392.871094 802.71875 395.195312 804.011719 394.933594 C 805.300781 394.675781 805.882812 394.355469 805.882812 394.355469 C 805.882812 394.355469 798.78125 393.515625 795.164062 392.355469 C 791.546875 391.195312 791.808594 389.195312 792.582031 389.195312 C 793.355469 389.195312 796.585938 389.644531 796.585938 389.644531 C 796.585938 389.644531 805.820312 392.226562 806.398438 391.515625 C 806.980469 390.742188 797.746094 389.066406 795.679688 388.097656 C 793.679688 387.066406 793.484375 385.515625 794.839844 384.742188 C 796.132812 384.03125 804.527344 387.515625 806.527344 388.097656 C 808.53125 388.675781 813.050781 390.417969 815.503906 391.257812 C 817.957031 392.097656 822.15625 390.546875 822.15625 390.546875 C 822.15625 390.546875 825.253906 392.613281 826.804688 393.582031 Z M 766.496094 381.773438 C 766.496094 381.773438 771.402344 385.773438 774.242188 386.804688 C 777.019531 387.902344 782.960938 389.324219 784.640625 390.484375 C 786.316406 391.644531 788.707031 395.066406 789.09375 396.289062 C 789.480469 397.515625 788.253906 398.03125 787.414062 397.644531 C 787.414062 397.644531 786.769531 395.773438 784.960938 393.773438 C 783.152344 391.773438 780.570312 389.902344 780.570312 389.902344 C 780.570312 389.902344 783.476562 393.195312 784.445312 394.546875 C 785.414062 395.902344 786.578125 398.613281 786.1875 398.742188 C 785.800781 398.871094 784.1875 398.484375 783.21875 397.066406 C 782.25 395.644531 781.152344 391.773438 778.570312 390.289062 C 778.570312 390.289062 779.859375 391.902344 779.925781 392.675781 C 779.988281 393.453125 781.28125 396.160156 781.347656 396.804688 C 781.410156 397.453125 779.730469 397.324219 778.441406 396.355469 C 777.214844 395.386719 776.4375 392.355469 775.46875 391.582031 C 774.5 390.804688 773.210938 390.484375 773.210938 390.484375 C 773.210938 390.484375 774.179688 392.097656 774.566406 392.933594 C 774.953125 393.773438 775.019531 395.257812 773.53125 395.644531 C 771.984375 396.03125 771.53125 393.582031 770.886719 393.582031 C 770.238281 393.582031 768.949219 394.417969 767.851562 393.515625 C 766.753906 392.613281 764.621094 391.257812 762.554688 390.289062 C 760.488281 389.324219 755.777344 387.128906 753.902344 383.644531 C 754.03125 383.582031 757.90625 379.453125 766.496094 381.773438 Z M 766.496094 381.773438 " fill-opacity="1" fill-rule="nonzero"/></svg>